<?xml version="1.0" standalone="no"?>
<!DOCTYPE svg PUBLIC "-//W3C//DTD SVG 20010904//EN"
 "http://www.w3.org/TR/2001/REC-SVG-20010904/DTD/svg10.dtd">
<svg version="1.0" xmlns="http://www.w3.org/2000/svg"
 width="512.000000pt" height="512.000000pt" viewBox="0 0 512.000000 512.000000"
 preserveAspectRatio="xMidYMid meet" style="background-color:white;">
<metadata>
Created by potrace 1.16, written by Peter Selinger 2001-2019
</metadata>
<g transform="translate(0.000000,512.000000) scale(0.100000,-0.100000)"
fill="#000099" stroke="none">
<path d="M2305 3985 c-286 -53 -543 -186 -759 -394 -245 -237 -401 -546 -447
-888 -14 -108 -7 -320 15 -423 112 -518 524 -982 1006 -1130 160 -49 259 -64
430 -64 248 0 428 42 645 149 462 229 793 693 838 1173 31 335 -67 656 -294
959 -239 320 -548 525 -914 609 -100 23 -414 28 -520 9z m440 -34 c22 -4 -39
-6 -135 -4 -96 3 -182 6 -190 7 -33 7 288 4 325 -3z m-372 -8 c-7 -2 -19 -2
-25 0 -7 3 -2 5 12 5 14 0 19 -2 13 -5z m487 -13 c20 -6 21 -8 5 -8 -11 0 -33
4 -50 8 -27 7 -27 8 -5 8 14 0 36 -4 50 -8z m57 -16 c-3 -3 -12 -4 -19 -1 -8
3 -5 6 6 6 11 1 17 -2 13 -5z m-89 -43 c208 -44 429 -140 593 -257 107 -77
267 -235 352 -349 109 -146 191 -335 222 -514 18 -104 19 -375 2 -476 l-12
-70 -40 -5 c-44 -6 -42 -2 -106 -153 -160 -376 -511 -691 -894 -802 -77 -22
-125 -32 -285 -58 -14 -2 -2 -5 26 -6 119 -3 328 56 490 137 315 159 549 409
695 743 53 121 81 158 39 52 -149 -375 -422 -668 -775 -834 -166 -78 -364
-119 -577 -119 -222 0 -403 38 -575 120 -93 44 -245 139 -259 162 -3 5 27 -14
68 -41 162 -110 433 -212 558 -210 22 0 -3 9 -70 25 -292 67 -471 164 -665
358 -207 209 -344 455 -402 726 -13 64 -18 128 -18 255 0 154 3 180 28 278 71
274 192 486 387 677 213 210 493 346 790 384 79 10 337 -4 428 -23z m-1133
-2401 c10 -11 16 -20 13 -20 -3 0 -13 9 -23 20 -10 11 -16 20 -13 20 3 0 13
-9 23 -20z" stroke="#000000" stroke-width="40"/>
<path d="M2482 3572 c-134 -243 -507 -892 -513 -892 -3 0 -43 32 -88 71 l-82
72 -97 -2 c-53 -1 -97 -3 -98 -4 -1 -1 59 -56 133 -122 74 -66 141 -128 150
-137 13 -15 8 -29 -63 -155 -42 -76 -86 -153 -96 -170 l-20 -33 114 0 113 1
105 164 c57 91 107 165 110 165 3 1 71 -68 152 -152 l148 -153 0 -62 c0 -74
10 -83 94 -83 l56 0 0 73 0 74 188 181 c179 171 190 180 207 164 16 -16 17
-16 10 8 -4 14 -30 70 -57 125 -28 55 -44 93 -36 85 39 -41 272 -420 321 -522
l32 -67 58 0 59 -1 -19 28 c-10 16 -61 95 -113 176 -52 81 -210 320 -350 532
l-255 384 -3 -91 c-3 -89 -2 -92 31 -142 32 -49 71 -120 180 -326 l44 -83
-139 -132 c-76 -72 -143 -132 -149 -134 -5 -2 -9 215 -9 569 0 357 4 569 9
564 12 -12 207 -337 486 -810 116 -198 235 -396 264 -440 92 -140 77 -105 -24
60 -34 55 -118 197 -187 315 -69 118 -206 350 -305 515 -234 391 -243 408
-243 439 0 23 -4 26 -37 26 -37 0 -39 -2 -81 -78z m-52 -769 l0 -288 -102 103
-103 103 70 135 c82 159 124 234 130 234 3 0 5 -129 5 -287z m87 -175 c-1 -62
-3 -12 -3 112 0 124 2 174 3 113 2 -62 2 -164 0 -225z m-333 160 c-49 -98
-156 -293 -166 -303 -14 -14 41 95 119 238 66 119 95 160 47 65z m-308 -98
c35 -34 63 -64 62 -66 -2 -2 -42 33 -88 77 -47 44 -75 74 -62 66 12 -8 52 -42
88 -77z m687 -467 c48 -75 -231 191 -312 297 -19 25 42 -29 135 -120 93 -91
172 -171 177 -177z" stroke="#000000" stroke-width="40"/>
<path d="M3848 2998 c57 -171 74 -280 76 -478 0 -96 -2 -193 -7 -215 -6 -34
-6 -37 5 -20 17 28 23 329 9 438 -14 103 -43 216 -77 303 -40 99 -43 84 -6
-28z" stroke="#000000" stroke-width="40"/>
</g>
</svg>